<svg width="17" height="17" viewBox="0 0 17 17" fill="none" xmlns="http://www.w3.org/2000/svg">
<path d="M15.3438 11.375L11.6797 9.81251C11.4906 9.72777 11.2831 9.69263 11.0767 9.7104C10.8703 9.72817 10.6718 9.79827 10.5 9.91407L8.53906 11.2188C7.34394 10.6383 6.37631 9.67617 5.78906 8.48438L7.08594 6.50001C7.20097 6.32804 7.27123 6.13006 7.29033 5.92404C7.30943 5.71803 7.27677 5.51051 7.19531 5.32032L5.625 1.65626C5.51542 1.40885 5.32989 1.20277 5.09529 1.06791C4.8607 0.93306 4.58925 0.876437 4.32031 0.906256C3.26531 1.04446 2.29638 1.56108 1.59369 2.36005C0.890995 3.15903 0.502346 4.18599 0.5 5.25001C0.5 11.4531 5.54688 16.5 11.75 16.5C12.814 16.4977 13.841 16.109 14.64 15.4063C15.4389 14.7036 15.9555 13.7347 16.0938 12.6797C16.1236 12.4108 16.0669 12.1393 15.9321 11.9047C15.7972 11.6701 15.5912 11.4846 15.3438 11.375Z" fill="white"/>
</svg>
